<svg width="33" height="32" viewBox="0 0 33 32" fill="none" xmlns="http://www.w3.org/2000/svg">
<g id="Star">
<path id="icon/toggle/star_purple500_24px" d="M15.9848 22.9295C16.1424 22.836 16.3385 22.8361 16.4959 22.9299L22.1122 26.2766L22.1124 26.2767C22.7774 26.6732 23.5511 26.0801 23.3861 25.381L21.8975 19.0879C21.8544 18.9055 21.9169 18.7142 22.0595 18.5925L27.0262 14.3525L27.0264 14.3524C27.5862 13.8749 27.2972 12.9572 26.5404 12.8979L26.5378 12.8977L20.0012 12.3511C19.8171 12.3357 19.6565 12.22 19.5835 12.0504L17.0257 6.10369L17.025 6.10211C16.7376 5.42747 15.7423 5.42747 15.4549 6.10211L15.4541 6.10407L12.8962 12.0374C12.8232 12.2069 12.6627 12.3223 12.4788 12.3377L5.94217 12.8844L5.93956 12.8846L5.93956 12.8846C5.18276 12.9439 4.89371 13.8616 5.45355 14.339L5.45373 14.3392L10.4205 18.5792C10.563 18.7009 10.6256 18.8921 10.5824 19.0746L9.09379 25.3677L15.9848 22.9295ZM15.9848 22.9295L10.3684 26.2628L10.3675 26.2634M15.9848 22.9295L10.3675 26.2634M10.3675 26.2634C9.70263 26.6599 8.92895 26.0669 9.09373 25.3679L10.3675 26.2634Z" fill="#FFBA79" stroke="#FFBA79" stroke-linejoin="round"/>
</g>
</svg>
